<?xml version="1.0" encoding="utf-8"?>
<!-- Generator: Adobe Illustrator 27.5.0, SVG Export Plug-In . SVG Version: 6.00 Build 0)  -->
<svg version="1.1" id="Layer_1" xmlns="http://www.w3.org/2000/svg" xmlns:xlink="http://www.w3.org/1999/xlink" x="0px" y="0px"
	 viewBox="0 0 2122 2122" style="enable-background:new 0 0 2122 2122;" xml:space="preserve">
<g>
	<linearGradient id="SVGID_1_" gradientUnits="userSpaceOnUse" x1="1060.6602" y1="1464.4089" x2="1060.6602" y2="-318.6435">
		<stop  offset="0" style="stop-color:#FFFFFF"/>
		<stop  offset="1" style="stop-color:#E6E6E6"/>
	</linearGradient>
	<rect style="fill:url(#SVGID_1_);" width="2121.32" height="2121.32"/>
	<g style="opacity:0.2;">
		<g>
			<path style="fill:#FFFFFF;" d="M832.743,952.918c51.178,29.281,128.802,61.575,236.245,75.429
				c32.999,4.26,64.579,6.421,93.864,6.421c13.36,0,25.971-0.441,37.884-1.254c-1.733,51.706-8.362,116.423-25.919,186.821
				c-50.211,201.326-165.16,362.836-342.07,480.909c-176.926-118.074-291.886-279.586-342.102-480.911
				c-17.559-70.398-24.189-135.113-25.923-186.819c11.91,0.813,24.526,1.254,37.883,1.254c29.285,0,60.864-2.16,93.843-6.418
				C703.923,1014.494,781.557,982.2,832.743,952.918 M832.749,822.513c0,0-74.737,77.561-249.928,100.147
				c-30.475,3.935-57.076,5.544-80.217,5.544c-104.172,0-138.077-32.629-138.077-32.629s-101.234,600.901,468.222,931.117
				c569.413-330.217,468.182-931.117,468.182-931.117s-33.887,32.629-138.079,32.629c-23.136,0-49.752-1.611-80.218-5.544
				C907.472,900.074,832.749,822.513,832.749,822.513L832.749,822.513z"/>
			<polygon style="fill:#FFFFFF;" points="1057.074,1085.9 763.546,1379.432 647.34,1263.223 566.613,1343.943 763.546,1540.875 
				1137.795,1166.627 			"/>
		</g>
		<g>
			
				<linearGradient id="SVGID_00000175304074123363314620000017410250547851927996_" gradientUnits="userSpaceOnUse" x1="454.3639" y1="1530.2511" x2="1215.0975" y2="769.5175">
				<stop  offset="0" style="stop-color:#F7FCF7"/>
				<stop  offset="0.3774" style="stop-color:#F9FDF7"/>
				<stop  offset="1" style="stop-color:#FCFEF8"/>
			</linearGradient>
			<path style="fill:url(#SVGID_00000175304074123363314620000017410250547851927996_);" d="M840.232,945.429
				c51.178,29.281,128.802,61.575,236.245,75.429c32.999,4.26,64.579,6.421,93.864,6.421c13.36,0,25.971-0.441,37.884-1.254
				c-1.733,51.706-8.362,116.423-25.919,186.821c-50.211,201.326-165.159,362.836-342.07,480.909
				c-176.925-118.074-291.886-279.586-342.102-480.911c-17.559-70.398-24.189-135.113-25.923-186.819
				c11.91,0.813,24.526,1.254,37.883,1.254c29.284,0,60.864-2.16,93.843-6.419C711.413,1007.004,789.046,974.711,840.232,945.429
				 M840.238,815.023c0,0-74.737,77.561-249.928,100.147c-30.475,3.935-57.076,5.544-80.217,5.544
				c-104.172,0-138.077-32.629-138.077-32.629s-101.234,600.901,468.222,931.117c569.413-330.217,468.182-931.117,468.182-931.117
				s-33.887,32.629-138.079,32.629c-23.136,0-49.752-1.611-80.218-5.544C914.961,892.585,840.238,815.023,840.238,815.023
				L840.238,815.023z"/>
			
				<linearGradient id="SVGID_00000171714147914639312900000015969237005189488800_" gradientUnits="userSpaceOnUse" x1="515.801" y1="1591.6876" x2="1276.5366" y2="830.9521">
				<stop  offset="0" style="stop-color:#F7FCF7"/>
				<stop  offset="0.3774" style="stop-color:#F9FDF7"/>
				<stop  offset="1" style="stop-color:#FCFEF8"/>
			</linearGradient>
			<polygon style="fill:url(#SVGID_00000171714147914639312900000015969237005189488800_);" points="1064.563,1078.41 
				771.035,1371.943 654.829,1255.734 574.102,1336.454 771.035,1533.386 1145.284,1159.138 			"/>
		</g>
		<g>
			
				<linearGradient id="SVGID_00000075880983446945758070000000418147304052903578_" gradientUnits="userSpaceOnUse" x1="461.8532" y1="1522.7618" x2="1222.5868" y2="762.0282">
				<stop  offset="0" style="stop-color:#F0F8EF"/>
				<stop  offset="0.3774" style="stop-color:#F4FAF0"/>
				<stop  offset="1" style="stop-color:#F8FDF1"/>
			</linearGradient>
			<path style="fill:url(#SVGID_00000075880983446945758070000000418147304052903578_);" d="M847.721,937.939
				c51.178,29.281,128.802,61.575,236.245,75.429c32.999,4.26,64.579,6.421,93.864,6.421c13.36,0,25.971-0.441,37.884-1.254
				c-1.733,51.706-8.362,116.423-25.919,186.821c-50.211,201.326-165.159,362.836-342.07,480.909
				c-176.925-118.074-291.886-279.586-342.102-480.911c-17.559-70.398-24.189-135.113-25.923-186.819
				c11.91,0.813,24.526,1.254,37.883,1.254c29.285,0,60.864-2.16,93.843-6.419C718.902,999.515,796.535,967.221,847.721,937.939
				 M847.727,807.534c0,0-74.737,77.562-249.928,100.147c-30.475,3.935-57.076,5.544-80.217,5.544
				c-104.172,0-138.077-32.629-138.077-32.629s-101.234,600.901,468.222,931.117c569.413-330.217,468.182-931.117,468.182-931.117
				s-33.887,32.629-138.079,32.629c-23.136,0-49.752-1.611-80.218-5.544C922.451,885.096,847.727,807.534,847.727,807.534
				L847.727,807.534z"/>
			
				<linearGradient id="SVGID_00000094619968530193372000000005063604248839042481_" gradientUnits="userSpaceOnUse" x1="523.2903" y1="1584.1984" x2="1284.0258" y2="823.4629">
				<stop  offset="0" style="stop-color:#F0F8EF"/>
				<stop  offset="0.3774" style="stop-color:#F4FAF0"/>
				<stop  offset="1" style="stop-color:#F8FDF1"/>
			</linearGradient>
			<polygon style="fill:url(#SVGID_00000094619968530193372000000005063604248839042481_);" points="1072.052,1070.921 
				778.524,1364.453 662.319,1248.244 581.591,1328.965 778.524,1525.897 1152.773,1151.648 			"/>
		</g>
		<g>
			
				<linearGradient id="SVGID_00000020371850289076651200000013935411051231625654_" gradientUnits="userSpaceOnUse" x1="469.3424" y1="1515.2726" x2="1230.076" y2="754.539">
				<stop  offset="0" style="stop-color:#E8F5E6"/>
				<stop  offset="0.3774" style="stop-color:#EEF8E8"/>
				<stop  offset="1" style="stop-color:#F5FCEA"/>
			</linearGradient>
			<path style="fill:url(#SVGID_00000020371850289076651200000013935411051231625654_);" d="M855.21,930.45
				c51.178,29.281,128.802,61.575,236.245,75.429c32.999,4.26,64.579,6.421,93.864,6.421c13.36,0,25.971-0.441,37.884-1.255
				c-1.733,51.707-8.362,116.423-25.919,186.821c-50.211,201.326-165.159,362.836-342.07,480.909
				c-176.925-118.074-291.886-279.586-342.102-480.911c-17.559-70.398-24.189-135.113-25.923-186.819
				c11.91,0.813,24.526,1.255,37.883,1.255c29.284,0,60.864-2.161,93.843-6.419C726.391,992.026,804.025,959.732,855.21,930.45
				 M855.216,800.045c0,0-74.738,77.562-249.928,100.147c-30.475,3.935-57.076,5.544-80.217,5.544
				c-104.172,0-138.077-32.629-138.077-32.629s-101.234,600.901,468.222,931.118c569.413-330.217,468.182-931.118,468.182-931.118
				s-33.887,32.629-138.079,32.629c-23.136,0-49.752-1.611-80.218-5.544C929.94,877.606,855.216,800.045,855.216,800.045
				L855.216,800.045z"/>
			
				<linearGradient id="SVGID_00000150810176254747059820000016304185340274011039_" gradientUnits="userSpaceOnUse" x1="530.7795" y1="1576.7091" x2="1291.515" y2="815.9736">
				<stop  offset="0" style="stop-color:#E8F5E6"/>
				<stop  offset="0.3774" style="stop-color:#EEF8E8"/>
				<stop  offset="1" style="stop-color:#F5FCEA"/>
			</linearGradient>
			<polygon style="fill:url(#SVGID_00000150810176254747059820000016304185340274011039_);" points="1079.542,1063.432 
				786.013,1356.964 669.808,1240.755 589.081,1321.476 786.013,1518.408 1160.262,1144.159 			"/>
		</g>
		<g>
			
				<linearGradient id="SVGID_00000182493404991423644930000004211687844532489905_" gradientUnits="userSpaceOnUse" x1="476.8316" y1="1507.7833" x2="1237.5652" y2="747.0497">
				<stop  offset="0" style="stop-color:#E0F1DE"/>
				<stop  offset="0.3774" style="stop-color:#E9F6E0"/>
				<stop  offset="1" style="stop-color:#F2FBE3"/>
			</linearGradient>
			<path style="fill:url(#SVGID_00000182493404991423644930000004211687844532489905_);" d="M862.7,922.961
				c51.178,29.281,128.802,61.575,236.245,75.429c32.999,4.26,64.579,6.421,93.864,6.421c13.36,0,25.971-0.441,37.884-1.254
				c-1.733,51.706-8.362,116.423-25.919,186.821c-50.211,201.326-165.159,362.836-342.07,480.909
				c-176.925-118.074-291.886-279.586-342.102-480.911c-17.559-70.398-24.189-135.113-25.923-186.819
				c11.91,0.813,24.526,1.254,37.883,1.254c29.285,0,60.864-2.16,93.843-6.419C733.88,984.536,811.514,952.243,862.7,922.961
				 M862.706,792.556c0,0-74.737,77.561-249.927,100.147c-30.475,3.935-57.076,5.544-80.217,5.544
				c-104.172,0-138.077-32.629-138.077-32.629s-101.234,600.901,468.222,931.117c569.413-330.217,468.182-931.117,468.182-931.117
				s-33.887,32.629-138.079,32.629c-23.136,0-49.752-1.611-80.218-5.544C937.429,870.117,862.706,792.556,862.706,792.556
				L862.706,792.556z"/>
			
				<linearGradient id="SVGID_00000124882753892503198040000004333936175429929917_" gradientUnits="userSpaceOnUse" x1="538.2689" y1="1569.22" x2="1299.0043" y2="808.4845">
				<stop  offset="0" style="stop-color:#E0F1DE"/>
				<stop  offset="0.3774" style="stop-color:#E9F6E0"/>
				<stop  offset="1" style="stop-color:#F2FBE3"/>
			</linearGradient>
			<polygon style="fill:url(#SVGID_00000124882753892503198040000004333936175429929917_);" points="1087.031,1055.943 
				793.503,1349.475 677.297,1233.266 596.57,1313.986 793.503,1510.918 1167.751,1136.67 			"/>
		</g>
		<g>
			
				<linearGradient id="SVGID_00000162316669771722846260000014754594049168556714_" gradientUnits="userSpaceOnUse" x1="484.3208" y1="1500.2941" x2="1245.0544" y2="739.5605">
				<stop  offset="0" style="stop-color:#D8EED6"/>
				<stop  offset="0.3774" style="stop-color:#E3F4D9"/>
				<stop  offset="0.493" style="stop-color:#E6F5DA"/>
				<stop  offset="1" style="stop-color:#EFFADC"/>
			</linearGradient>
			<path style="fill:url(#SVGID_00000162316669771722846260000014754594049168556714_);" d="M870.189,915.471
				c51.178,29.281,128.802,61.575,236.245,75.429c32.999,4.26,64.579,6.421,93.864,6.421c13.36,0,25.971-0.441,37.884-1.255
				c-1.733,51.707-8.362,116.423-25.919,186.821c-50.211,201.326-165.159,362.836-342.07,480.909
				c-176.925-118.074-291.886-279.586-342.102-480.911c-17.559-70.397-24.189-135.113-25.923-186.819
				c11.91,0.813,24.526,1.255,37.883,1.255c29.284,0,60.864-2.161,93.843-6.419C741.37,977.047,819.003,944.754,870.189,915.471
				 M870.195,785.066c0,0-74.738,77.561-249.927,100.147c-30.475,3.935-57.076,5.544-80.217,5.544
				c-104.172,0-138.078-32.629-138.078-32.629s-101.234,600.901,468.222,931.118c569.413-330.217,468.182-931.118,468.182-931.118
				s-33.887,32.629-138.079,32.629c-23.136,0-49.752-1.611-80.218-5.544C944.918,862.628,870.195,785.066,870.195,785.066
				L870.195,785.066z"/>
			
				<linearGradient id="SVGID_00000066491696853010115880000001101038802681232569_" gradientUnits="userSpaceOnUse" x1="545.7581" y1="1561.7306" x2="1306.4935" y2="800.9952">
				<stop  offset="0" style="stop-color:#D8EED6"/>
				<stop  offset="0.3774" style="stop-color:#E3F4D9"/>
				<stop  offset="0.493" style="stop-color:#E6F5DA"/>
				<stop  offset="1" style="stop-color:#EFFADC"/>
			</linearGradient>
			<polygon style="fill:url(#SVGID_00000066491696853010115880000001101038802681232569_);" points="1094.52,1048.453 
				800.992,1341.986 684.786,1225.777 604.059,1306.497 800.992,1503.429 1175.241,1129.181 			"/>
		</g>
		<g>
			
				<linearGradient id="SVGID_00000078004411014007064680000007636757646491058830_" gradientUnits="userSpaceOnUse" x1="491.8102" y1="1492.8048" x2="1252.5437" y2="732.0712">
				<stop  offset="0" style="stop-color:#D1EACE"/>
				<stop  offset="0.3774" style="stop-color:#DDF1D1"/>
				<stop  offset="0.5478" style="stop-color:#E2F4D2"/>
				<stop  offset="1" style="stop-color:#EBF9D5"/>
			</linearGradient>
			<path style="fill:url(#SVGID_00000078004411014007064680000007636757646491058830_);" d="M877.678,907.982
				c51.178,29.281,128.802,61.575,236.245,75.429c32.999,4.26,64.579,6.421,93.864,6.421c13.36,0,25.971-0.441,37.884-1.255
				c-1.733,51.707-8.362,116.423-25.919,186.821c-50.211,201.326-165.159,362.835-342.07,480.909
				c-176.925-118.074-291.886-279.586-342.102-480.911c-17.559-70.398-24.189-135.113-25.923-186.819
				c11.91,0.813,24.526,1.255,37.883,1.255c29.285,0,60.864-2.161,93.843-6.419C748.859,969.558,826.492,937.265,877.678,907.982
				 M877.684,777.577c0,0-74.738,77.561-249.928,100.147c-30.475,3.935-57.076,5.544-80.217,5.544
				c-104.172,0-138.077-32.629-138.077-32.629s-101.234,600.901,468.222,931.117c569.413-330.217,468.182-931.117,468.182-931.117
				s-33.887,32.629-138.079,32.629c-23.136,0-49.752-1.611-80.218-5.544C952.407,855.138,877.684,777.577,877.684,777.577
				L877.684,777.577z"/>
			
				<linearGradient id="SVGID_00000049187956211198820060000014559868141750939275_" gradientUnits="userSpaceOnUse" x1="553.2473" y1="1554.2415" x2="1313.9827" y2="793.506">
				<stop  offset="0" style="stop-color:#D1EACE"/>
				<stop  offset="0.3774" style="stop-color:#DDF1D1"/>
				<stop  offset="0.5478" style="stop-color:#E2F4D2"/>
				<stop  offset="1" style="stop-color:#EBF9D5"/>
			</linearGradient>
			<polygon style="fill:url(#SVGID_00000049187956211198820060000014559868141750939275_);" points="1102.009,1040.964 
				808.481,1334.496 692.276,1218.287 611.548,1299.008 808.481,1495.94 1182.73,1121.691 			"/>
		</g>
		<g>
			
				<linearGradient id="SVGID_00000026151528524754392740000001266112535514733206_" gradientUnits="userSpaceOnUse" x1="499.2993" y1="1485.3156" x2="1260.033" y2="724.582">
				<stop  offset="0" style="stop-color:#C9E7C5"/>
				<stop  offset="0.3774" style="stop-color:#D8EFC9"/>
				<stop  offset="0.5904" style="stop-color:#DFF3CB"/>
				<stop  offset="1" style="stop-color:#E8F8CE"/>
			</linearGradient>
			<path style="fill:url(#SVGID_00000026151528524754392740000001266112535514733206_);" d="M885.167,900.493
				c51.177,29.281,128.802,61.575,236.245,75.429c32.999,4.26,64.579,6.421,93.864,6.421c13.36,0,25.971-0.441,37.884-1.255
				c-1.733,51.707-8.362,116.423-25.919,186.821c-50.211,201.326-165.159,362.835-342.07,480.909
				c-176.925-118.074-291.886-279.586-342.102-480.911c-17.559-70.397-24.189-135.113-25.923-186.819
				c11.91,0.813,24.526,1.255,37.883,1.255c29.285,0,60.864-2.161,93.843-6.419C756.348,962.069,833.982,929.775,885.167,900.493
				 M885.173,770.088c0,0-74.737,77.561-249.927,100.147c-30.475,3.935-57.076,5.544-80.217,5.544
				c-104.172,0-138.077-32.629-138.077-32.629s-101.234,600.901,468.222,931.117c569.413-330.217,468.182-931.117,468.182-931.117
				s-33.887,32.629-138.079,32.629c-23.136,0-49.753-1.611-80.218-5.544C959.897,847.649,885.173,770.088,885.173,770.088
				L885.173,770.088z"/>
			
				<linearGradient id="SVGID_00000130648622803371639400000015319949993739018121_" gradientUnits="userSpaceOnUse" x1="560.7366" y1="1546.7522" x2="1321.4719" y2="786.0167">
				<stop  offset="0" style="stop-color:#C9E7C5"/>
				<stop  offset="0.3774" style="stop-color:#D8EFC9"/>
				<stop  offset="0.5904" style="stop-color:#DFF3CB"/>
				<stop  offset="1" style="stop-color:#E8F8CE"/>
			</linearGradient>
			<polygon style="fill:url(#SVGID_00000130648622803371639400000015319949993739018121_);" points="1109.499,1033.475 
				815.97,1327.007 699.765,1210.798 619.037,1291.519 815.97,1488.451 1190.219,1114.202 			"/>
		</g>
		<g>
			
				<linearGradient id="SVGID_00000090270130392792967680000007732957701802117530_" gradientUnits="userSpaceOnUse" x1="506.7886" y1="1477.8263" x2="1267.5221" y2="717.0928">
				<stop  offset="0" style="stop-color:#C1E4BD"/>
				<stop  offset="0.3774" style="stop-color:#D2EDC2"/>
				<stop  offset="0.6394" style="stop-color:#DCF2C5"/>
				<stop  offset="1" style="stop-color:#E5F7C7"/>
			</linearGradient>
			<path style="fill:url(#SVGID_00000090270130392792967680000007732957701802117530_);" d="M892.657,893.004
				c51.178,29.281,128.802,61.575,236.245,75.429c32.999,4.26,64.579,6.421,93.864,6.421c13.36,0,25.971-0.441,37.884-1.255
				c-1.733,51.707-8.362,116.423-25.919,186.821c-50.211,201.326-165.159,362.835-342.07,480.909
				c-176.925-118.074-291.886-279.586-342.102-480.911c-17.559-70.398-24.189-135.113-25.923-186.819
				c11.91,0.813,24.526,1.255,37.883,1.255c29.285,0,60.864-2.161,93.843-6.419C763.837,954.58,841.471,922.286,892.657,893.004
				 M892.662,762.599c0,0-74.737,77.561-249.927,100.147c-30.475,3.935-57.076,5.544-80.217,5.544
				c-104.172,0-138.077-32.629-138.077-32.629s-101.234,600.901,468.222,931.117c569.413-330.217,468.182-931.117,468.182-931.117
				s-33.887,32.629-138.079,32.629c-23.135,0-49.752-1.611-80.218-5.544C967.386,840.16,892.662,762.599,892.662,762.599
				L892.662,762.599z"/>
			
				<linearGradient id="SVGID_00000127024186386608492330000005691211119670389404_" gradientUnits="userSpaceOnUse" x1="568.2258" y1="1539.2628" x2="1328.9612" y2="778.5276">
				<stop  offset="0" style="stop-color:#C1E4BD"/>
				<stop  offset="0.3774" style="stop-color:#D2EDC2"/>
				<stop  offset="0.6394" style="stop-color:#DCF2C5"/>
				<stop  offset="1" style="stop-color:#E5F7C7"/>
			</linearGradient>
			<polygon style="fill:url(#SVGID_00000127024186386608492330000005691211119670389404_);" points="1116.988,1025.986 
				823.459,1319.518 707.254,1203.309 626.527,1284.029 823.459,1480.962 1197.708,1106.713 			"/>
		</g>
		<g>
			
				<linearGradient id="SVGID_00000155132878685382722500000015093824449260256420_" gradientUnits="userSpaceOnUse" x1="514.2778" y1="1470.337" x2="1275.0114" y2="709.6035">
				<stop  offset="0" style="stop-color:#BAE0B5"/>
				<stop  offset="0.3774" style="stop-color:#CCEABA"/>
				<stop  offset="0.6765" style="stop-color:#D9F1BE"/>
				<stop  offset="1" style="stop-color:#E2F6C0"/>
			</linearGradient>
			<path style="fill:url(#SVGID_00000155132878685382722500000015093824449260256420_);" d="M900.146,885.515
				c51.177,29.281,128.802,61.575,236.245,75.429c32.999,4.26,64.579,6.421,93.864,6.421c13.36,0,25.971-0.441,37.884-1.255
				c-1.733,51.707-8.362,116.423-25.919,186.821c-50.211,201.326-165.159,362.835-342.07,480.909
				c-176.925-118.074-291.886-279.586-342.102-480.911c-17.559-70.397-24.189-135.113-25.923-186.819
				c11.91,0.813,24.526,1.255,37.883,1.255c29.284,0,60.864-2.161,93.843-6.419C771.327,947.09,848.96,914.797,900.146,885.515
				 M900.152,755.109c0,0-74.737,77.561-249.927,100.147c-30.475,3.935-57.076,5.544-80.217,5.544
				c-104.172,0-138.078-32.629-138.078-32.629s-101.234,600.901,468.222,931.117c569.414-330.217,468.182-931.117,468.182-931.117
				s-33.887,32.629-138.079,32.629c-23.136,0-49.753-1.611-80.218-5.544C974.875,832.671,900.152,755.109,900.152,755.109
				L900.152,755.109z"/>
			
				<linearGradient id="SVGID_00000086672516891377995460000004649097738543551105_" gradientUnits="userSpaceOnUse" x1="575.715" y1="1531.7736" x2="1336.4504" y2="771.0382">
				<stop  offset="0" style="stop-color:#BAE0B5"/>
				<stop  offset="0.3774" style="stop-color:#CCEABA"/>
				<stop  offset="0.6765" style="stop-color:#D9F1BE"/>
				<stop  offset="1" style="stop-color:#E2F6C0"/>
			</linearGradient>
			<polygon style="fill:url(#SVGID_00000086672516891377995460000004649097738543551105_);" points="1124.477,1018.496 
				830.949,1312.029 714.743,1195.82 634.016,1276.54 830.949,1473.472 1205.198,1099.224 			"/>
		</g>
		<g>
			
				<linearGradient id="SVGID_00000057132597819827698430000015159201217184558781_" gradientUnits="userSpaceOnUse" x1="521.7671" y1="1462.8478" x2="1282.5006" y2="702.1143">
				<stop  offset="0" style="stop-color:#B2DDAD"/>
				<stop  offset="0.3774" style="stop-color:#C7E8B3"/>
				<stop  offset="0.687" style="stop-color:#D5F0B7"/>
				<stop  offset="1" style="stop-color:#DEF5B9"/>
			</linearGradient>
			<path style="fill:url(#SVGID_00000057132597819827698430000015159201217184558781_);" d="M907.635,878.025
				c51.178,29.281,128.802,61.575,236.245,75.429c32.999,4.26,64.579,6.421,93.864,6.421c13.36,0,25.971-0.441,37.884-1.255
				c-1.733,51.707-8.362,116.423-25.919,186.821c-50.211,201.326-165.159,362.835-342.07,480.909
				c-176.925-118.074-291.886-279.586-342.102-480.911c-17.559-70.397-24.189-135.113-25.923-186.819
				c11.91,0.813,24.526,1.255,37.883,1.255c29.285,0,60.864-2.161,93.843-6.419C778.816,939.601,856.449,907.308,907.635,878.025
				 M907.641,747.62c0,0-74.737,77.561-249.927,100.147c-30.475,3.935-57.076,5.544-80.217,5.544
				c-104.172,0-138.077-32.628-138.077-32.628S338.185,1421.583,907.641,1751.8c569.413-330.217,468.182-931.117,468.182-931.117
				s-33.887,32.628-138.079,32.628c-23.136,0-49.752-1.611-80.218-5.544C982.364,825.182,907.641,747.62,907.641,747.62
				L907.641,747.62z"/>
			
				<linearGradient id="SVGID_00000102521918100266689290000013526413976836762763_" gradientUnits="userSpaceOnUse" x1="583.2043" y1="1524.2844" x2="1343.9396" y2="763.5491">
				<stop  offset="0" style="stop-color:#B2DDAD"/>
				<stop  offset="0.3774" style="stop-color:#C7E8B3"/>
				<stop  offset="0.687" style="stop-color:#D5F0B7"/>
				<stop  offset="1" style="stop-color:#DEF5B9"/>
			</linearGradient>
			<polygon style="fill:url(#SVGID_00000102521918100266689290000013526413976836762763_);" points="1131.966,1011.007 
				838.438,1304.54 722.232,1188.33 641.505,1269.051 838.438,1465.983 1212.687,1091.734 			"/>
		</g>
		<g>
			
				<linearGradient id="SVGID_00000169534356625515320960000000721544733622339977_" gradientUnits="userSpaceOnUse" x1="529.2563" y1="1455.3585" x2="1289.9897" y2="694.6251">
				<stop  offset="0" style="stop-color:#AAD9A5"/>
				<stop  offset="0.3774" style="stop-color:#C1E6AB"/>
				<stop  offset="0.7139" style="stop-color:#D2EFB0"/>
				<stop  offset="1" style="stop-color:#DBF4B2"/>
			</linearGradient>
			<path style="fill:url(#SVGID_00000169534356625515320960000000721544733622339977_);" d="M915.124,870.536
				c51.178,29.281,128.802,61.575,236.245,75.429c32.999,4.26,64.579,6.421,93.864,6.421c13.359,0,25.971-0.441,37.884-1.255
				c-1.733,51.707-8.362,116.423-25.919,186.821c-50.211,201.326-165.159,362.835-342.07,480.909
				c-176.925-118.074-291.886-279.586-342.102-480.911c-17.559-70.397-24.189-135.113-25.923-186.819
				c11.91,0.813,24.526,1.255,37.883,1.255c29.284,0,60.864-2.161,93.843-6.419C786.305,932.112,863.939,899.818,915.124,870.536
				 M915.13,740.131c0,0-74.737,77.561-249.927,100.147c-30.475,3.935-57.076,5.544-80.217,5.544
				c-104.172,0-138.078-32.629-138.078-32.629s-101.234,600.901,468.222,931.117c569.414-330.217,468.182-931.117,468.182-931.117
				s-33.887,32.629-138.078,32.629c-23.136,0-49.753-1.611-80.218-5.544C989.854,817.692,915.13,740.131,915.13,740.131
				L915.13,740.131z"/>
			
				<linearGradient id="SVGID_00000003102510352146193820000004833353766423313283_" gradientUnits="userSpaceOnUse" x1="590.6936" y1="1516.7952" x2="1351.4288" y2="756.0598">
				<stop  offset="0" style="stop-color:#AAD9A5"/>
				<stop  offset="0.3774" style="stop-color:#C1E6AB"/>
				<stop  offset="0.7139" style="stop-color:#D2EFB0"/>
				<stop  offset="1" style="stop-color:#DBF4B2"/>
			</linearGradient>
			<polygon style="fill:url(#SVGID_00000003102510352146193820000004833353766423313283_);" points="1139.456,1003.518 
				845.927,1297.05 729.722,1180.841 648.995,1261.562 845.927,1458.494 1220.176,1084.245 			"/>
		</g>
		<g>
			
				<linearGradient id="SVGID_00000076599445771768285810000006614870793894383783_" gradientUnits="userSpaceOnUse" x1="536.7455" y1="1447.8693" x2="1297.479" y2="687.1358">
				<stop  offset="0" style="stop-color:#A2D69C"/>
				<stop  offset="0.3774" style="stop-color:#BCE4A3"/>
				<stop  offset="0.7292" style="stop-color:#CFEEA8"/>
				<stop  offset="1" style="stop-color:#D8F3AB"/>
			</linearGradient>
			<path style="fill:url(#SVGID_00000076599445771768285810000006614870793894383783_);" d="M922.614,863.047
				c51.178,29.281,128.802,61.575,236.245,75.429c32.999,4.26,64.579,6.421,93.864,6.421c13.36,0,25.971-0.441,37.884-1.255
				c-1.733,51.707-8.362,116.423-25.919,186.821c-50.211,201.326-165.159,362.835-342.07,480.909
				c-176.925-118.074-291.886-279.586-342.102-480.911c-17.559-70.397-24.189-135.113-25.923-186.819
				c11.91,0.813,24.526,1.255,37.883,1.255c29.285,0,60.864-2.161,93.843-6.419C793.794,924.622,871.428,892.329,922.614,863.047
				 M922.619,732.642c0,0-74.737,77.561-249.927,100.147c-30.475,3.935-57.076,5.544-80.217,5.544
				c-104.172,0-138.078-32.628-138.078-32.628s-101.234,600.901,468.222,931.117c569.414-330.217,468.182-931.117,468.182-931.117
				s-33.887,32.628-138.078,32.628c-23.136,0-49.753-1.611-80.218-5.544C997.343,810.203,922.619,732.642,922.619,732.642
				L922.619,732.642z"/>
			
				<linearGradient id="SVGID_00000073711226173481405990000005553446225395153296_" gradientUnits="userSpaceOnUse" x1="598.1829" y1="1509.3059" x2="1358.9181" y2="748.5707">
				<stop  offset="0" style="stop-color:#A2D69C"/>
				<stop  offset="0.3774" style="stop-color:#BCE4A3"/>
				<stop  offset="0.7292" style="stop-color:#CFEEA8"/>
				<stop  offset="1" style="stop-color:#D8F3AB"/>
			</linearGradient>
			<polygon style="fill:url(#SVGID_00000073711226173481405990000005553446225395153296_);" points="1146.945,996.029 
				853.416,1289.561 737.211,1173.352 656.484,1254.072 853.416,1451.005 1227.665,1076.756 			"/>
		</g>
		<g>
			
				<linearGradient id="SVGID_00000067200503137628560610000012222886592239638187_" gradientUnits="userSpaceOnUse" x1="544.2347" y1="1440.3801" x2="1304.9683" y2="679.6465">
				<stop  offset="0" style="stop-color:#9BD394"/>
				<stop  offset="0.3774" style="stop-color:#B6E19C"/>
				<stop  offset="0.7488" style="stop-color:#CCEDA2"/>
				<stop  offset="1" style="stop-color:#D5F2A4"/>
			</linearGradient>
			<path style="fill:url(#SVGID_00000067200503137628560610000012222886592239638187_);" d="M930.103,855.557
				c51.177,29.281,128.802,61.575,236.245,75.429c32.999,4.26,64.579,6.421,93.864,6.421c13.359,0,25.971-0.441,37.884-1.255
				c-1.733,51.707-8.362,116.423-25.919,186.821c-50.211,201.325-165.159,362.835-342.07,480.909
				c-176.925-118.074-291.886-279.586-342.102-480.911c-17.559-70.397-24.189-135.113-25.923-186.819
				c11.91,0.813,24.526,1.255,37.882,1.255c29.285,0,60.864-2.161,93.843-6.419C801.284,917.133,878.917,884.84,930.103,855.557
				 M930.108,725.153c0,0-74.737,77.561-249.927,100.147c-30.475,3.935-57.076,5.544-80.217,5.544
				c-104.172,0-138.078-32.629-138.078-32.629s-101.234,600.901,468.222,931.117c569.414-330.217,468.182-931.117,468.182-931.117
				s-33.887,32.629-138.078,32.629c-23.136,0-49.753-1.611-80.218-5.544C1004.832,802.714,930.108,725.153,930.108,725.153
				L930.108,725.153z"/>
			
				<linearGradient id="SVGID_00000145765306486930721260000000307570259366587581_" gradientUnits="userSpaceOnUse" x1="605.6721" y1="1501.8167" x2="1366.4073" y2="741.0813">
				<stop  offset="0" style="stop-color:#9BD394"/>
				<stop  offset="0.3774" style="stop-color:#B6E19C"/>
				<stop  offset="0.7488" style="stop-color:#CCEDA2"/>
				<stop  offset="1" style="stop-color:#D5F2A4"/>
			</linearGradient>
			<polygon style="fill:url(#SVGID_00000145765306486930721260000000307570259366587581_);" points="1154.434,988.539 
				860.906,1282.072 744.7,1165.863 663.973,1246.583 860.906,1443.515 1235.154,1069.267 			"/>
		</g>
		<g>
			
				<linearGradient id="SVGID_00000066510125844840207120000009173277636534545539_" gradientUnits="userSpaceOnUse" x1="551.724" y1="1432.8909" x2="1312.4575" y2="672.1573">
				<stop  offset="0" style="stop-color:#93CF8C"/>
				<stop  offset="0.3774" style="stop-color:#B0DF94"/>
				<stop  offset="0.7602" style="stop-color:#C8EC9B"/>
				<stop  offset="1" style="stop-color:#D1F19D"/>
			</linearGradient>
			<path style="fill:url(#SVGID_00000066510125844840207120000009173277636534545539_);" d="M937.592,848.068
				c51.178,29.281,128.802,61.575,236.245,75.429c32.999,4.26,64.579,6.421,93.864,6.421c13.36,0,25.971-0.441,37.884-1.255
				c-1.733,51.707-8.362,116.423-25.92,186.821c-50.211,201.326-165.159,362.835-342.07,480.909
				c-176.925-118.074-291.886-279.586-342.102-480.911c-17.559-70.397-24.189-135.113-25.923-186.819
				c11.91,0.813,24.526,1.255,37.883,1.255c29.285,0,60.864-2.161,93.843-6.419C808.773,909.644,886.406,877.351,937.592,848.068
				 M937.598,717.663c0,0-74.737,77.561-249.927,100.147c-30.475,3.935-57.076,5.544-80.217,5.544
				c-104.172,0-138.078-32.629-138.078-32.629s-101.234,600.901,468.222,931.117c569.414-330.217,468.182-931.117,468.182-931.117
				s-33.887,32.629-138.078,32.629c-23.136,0-49.753-1.611-80.218-5.544C1012.321,795.224,937.598,717.663,937.598,717.663
				L937.598,717.663z"/>
			
				<linearGradient id="SVGID_00000121280328716678705770000001503988451598210451_" gradientUnits="userSpaceOnUse" x1="613.1613" y1="1494.3274" x2="1373.8966" y2="733.5922">
				<stop  offset="0" style="stop-color:#93CF8C"/>
				<stop  offset="0.3774" style="stop-color:#B0DF94"/>
				<stop  offset="0.7602" style="stop-color:#C8EC9B"/>
				<stop  offset="1" style="stop-color:#D1F19D"/>
			</linearGradient>
			<polygon style="fill:url(#SVGID_00000121280328716678705770000001503988451598210451_);" points="1161.923,981.05 
				868.395,1274.583 752.189,1158.374 671.462,1239.094 868.395,1436.026 1242.644,1061.778 			"/>
		</g>
		<g>
			
				<linearGradient id="SVGID_00000142173762266784014500000006282399749680749712_" gradientUnits="userSpaceOnUse" x1="559.2132" y1="1425.4016" x2="1319.9467" y2="664.668">
				<stop  offset="0" style="stop-color:#8BCC84"/>
				<stop  offset="0.3774" style="stop-color:#ABDD8C"/>
				<stop  offset="0.3943" style="stop-color:#ACDE8C"/>
				<stop  offset="0.7704" style="stop-color:#C5EB93"/>
				<stop  offset="1" style="stop-color:#CEF096"/>
			</linearGradient>
			<path style="fill:url(#SVGID_00000142173762266784014500000006282399749680749712_);" d="M945.081,840.579
				c51.177,29.281,128.802,61.575,236.245,75.429c32.999,4.26,64.579,6.421,93.864,6.421c13.359,0,25.971-0.441,37.884-1.255
				c-1.733,51.707-8.362,116.423-25.919,186.821c-50.211,201.326-165.159,362.835-342.07,480.909
				c-176.925-118.074-291.886-279.586-342.102-480.911c-17.559-70.397-24.189-135.113-25.923-186.819
				c11.91,0.813,24.526,1.255,37.883,1.255c29.284,0,60.864-2.161,93.843-6.419C816.262,902.155,893.896,869.861,945.081,840.579
				 M945.087,710.174c0,0-74.737,77.561-249.927,100.147c-30.475,3.935-57.076,5.544-80.217,5.544
				c-104.172,0-138.078-32.629-138.078-32.629s-101.234,600.901,468.222,931.117c569.414-330.217,468.182-931.117,468.182-931.117
				s-33.887,32.629-138.078,32.629c-23.136,0-49.753-1.611-80.218-5.544C1019.81,787.735,945.087,710.174,945.087,710.174
				L945.087,710.174z"/>
			
				<linearGradient id="SVGID_00000029742147560432443980000017433699386183684244_" gradientUnits="userSpaceOnUse" x1="620.6506" y1="1486.8381" x2="1381.3857" y2="726.1029">
				<stop  offset="0" style="stop-color:#8BCC84"/>
				<stop  offset="0.3774" style="stop-color:#ABDD8C"/>
				<stop  offset="0.3943" style="stop-color:#ACDE8C"/>
				<stop  offset="0.7704" style="stop-color:#C5EB93"/>
				<stop  offset="1" style="stop-color:#CEF096"/>
			</linearGradient>
			<polygon style="fill:url(#SVGID_00000029742147560432443980000017433699386183684244_);" points="1169.413,973.561 
				875.884,1267.093 759.679,1150.884 678.951,1231.605 875.884,1428.537 1250.133,1054.288 			"/>
		</g>
		<g>
			
				<linearGradient id="SVGID_00000081621228757777674960000015925059986412216741_" gradientUnits="userSpaceOnUse" x1="566.7025" y1="1417.9124" x2="1327.4359" y2="657.1788">
				<stop  offset="0" style="stop-color:#84C87B"/>
				<stop  offset="0.3774" style="stop-color:#A5DA85"/>
				<stop  offset="0.4302" style="stop-color:#A9DC86"/>
				<stop  offset="0.784" style="stop-color:#C2E98D"/>
				<stop  offset="1" style="stop-color:#CBEE8F"/>
			</linearGradient>
			<path style="fill:url(#SVGID_00000081621228757777674960000015925059986412216741_);" d="M952.571,833.09
				c51.178,29.281,128.802,61.575,236.245,75.429c32.999,4.26,64.579,6.421,93.864,6.421c13.359,0,25.971-0.441,37.884-1.255
				c-1.733,51.707-8.362,116.423-25.92,186.821c-50.211,201.326-165.159,362.835-342.07,480.909
				c-176.925-118.074-291.886-279.586-342.102-480.911c-17.559-70.397-24.189-135.113-25.923-186.819
				c11.91,0.813,24.526,1.255,37.883,1.255c29.285,0,60.864-2.161,93.843-6.419C823.751,894.666,901.385,862.372,952.571,833.09
				 M952.576,702.685c0,0-74.737,77.561-249.927,100.147c-30.475,3.935-57.076,5.544-80.217,5.544
				c-104.172,0-138.078-32.629-138.078-32.629s-101.234,600.901,468.222,931.117c569.414-330.217,468.182-931.117,468.182-931.117
				s-33.887,32.629-138.078,32.629c-23.136,0-49.753-1.611-80.218-5.544C1027.3,780.246,952.576,702.685,952.576,702.685
				L952.576,702.685z"/>
			
				<linearGradient id="SVGID_00000116928181802037610410000007546349870776679611_" gradientUnits="userSpaceOnUse" x1="628.1399" y1="1479.3489" x2="1388.875" y2="718.6137">
				<stop  offset="0" style="stop-color:#84C87B"/>
				<stop  offset="0.3774" style="stop-color:#A5DA85"/>
				<stop  offset="0.4302" style="stop-color:#A9DC86"/>
				<stop  offset="0.784" style="stop-color:#C2E98D"/>
				<stop  offset="1" style="stop-color:#CBEE8F"/>
			</linearGradient>
			<polygon style="fill:url(#SVGID_00000116928181802037610410000007546349870776679611_);" points="1176.902,966.072 
				883.373,1259.604 767.168,1143.395 686.441,1224.115 883.373,1421.047 1257.622,1046.799 			"/>
		</g>
		<g>
			
				<linearGradient id="SVGID_00000061431912535311845930000015572584663770215845_" gradientUnits="userSpaceOnUse" x1="574.1916" y1="1410.4231" x2="1334.9252" y2="649.6895">
				<stop  offset="0" style="stop-color:#7CC573"/>
				<stop  offset="0.3774" style="stop-color:#A0D87D"/>
				<stop  offset="0.4514" style="stop-color:#A6DB7F"/>
				<stop  offset="0.792" style="stop-color:#BFE885"/>
				<stop  offset="1" style="stop-color:#C8ED88"/>
			</linearGradient>
			<path style="fill:url(#SVGID_00000061431912535311845930000015572584663770215845_);" d="M960.06,825.601
				c51.177,29.281,128.802,61.575,236.245,75.429c32.999,4.26,64.579,6.421,93.864,6.421c13.359,0,25.971-0.441,37.884-1.255
				c-1.733,51.707-8.362,116.423-25.92,186.821c-50.211,201.325-165.159,362.835-342.07,480.909
				c-176.925-118.074-291.886-279.586-342.102-480.911c-17.559-70.397-24.189-135.113-25.923-186.819
				c11.91,0.813,24.526,1.255,37.883,1.255c29.284,0,60.864-2.161,93.843-6.419C831.241,887.176,908.874,854.883,960.06,825.601
				 M960.065,695.196c0,0-74.737,77.561-249.927,100.147c-30.475,3.935-57.076,5.544-80.217,5.544
				c-104.172,0-138.078-32.629-138.078-32.629s-101.234,600.901,468.222,931.118c569.414-330.217,468.182-931.118,468.182-931.118
				s-33.887,32.629-138.078,32.629c-23.136,0-49.753-1.611-80.218-5.544C1034.789,772.757,960.065,695.196,960.065,695.196
				L960.065,695.196z"/>
			
				<linearGradient id="SVGID_00000018217608792529817480000010135064925031971002_" gradientUnits="userSpaceOnUse" x1="635.6291" y1="1471.8596" x2="1396.3643" y2="711.1244">
				<stop  offset="0" style="stop-color:#7CC573"/>
				<stop  offset="0.3774" style="stop-color:#A0D87D"/>
				<stop  offset="0.4514" style="stop-color:#A6DB7F"/>
				<stop  offset="0.792" style="stop-color:#BFE885"/>
				<stop  offset="1" style="stop-color:#C8ED88"/>
			</linearGradient>
			<polygon style="fill:url(#SVGID_00000018217608792529817480000010135064925031971002_);" points="1184.391,958.583 
				890.862,1252.115 774.657,1135.906 693.93,1216.626 890.862,1413.558 1265.111,1039.31 			"/>
		</g>
		<g>
			
				<linearGradient id="SVGID_00000005979249960414008700000016334239081792703919_" gradientUnits="userSpaceOnUse" x1="581.6809" y1="1402.9338" x2="1342.4144" y2="642.2003">
				<stop  offset="0" style="stop-color:#74C16B"/>
				<stop  offset="0.3774" style="stop-color:#9AD675"/>
				<stop  offset="0.4709" style="stop-color:#A2DA77"/>
				<stop  offset="0.7994" style="stop-color:#BBE77E"/>
				<stop  offset="1" style="stop-color:#C4EC81"/>
			</linearGradient>
			<path style="fill:url(#SVGID_00000005979249960414008700000016334239081792703919_);" d="M967.549,818.111
				c51.178,29.281,128.802,61.575,236.245,75.429c32.999,4.26,64.579,6.421,93.864,6.421c13.359,0,25.971-0.441,37.884-1.255
				c-1.733,51.707-8.362,116.423-25.92,186.821c-50.211,201.325-165.159,362.835-342.07,480.909
				c-176.925-118.074-291.886-279.586-342.102-480.911c-17.559-70.397-24.189-135.113-25.923-186.819
				c11.91,0.813,24.526,1.255,37.883,1.255c29.285,0,60.864-2.161,93.843-6.419C838.73,879.687,916.363,847.394,967.549,818.111
				 M967.555,687.706c0,0-74.737,77.561-249.927,100.147c-30.475,3.935-57.076,5.544-80.217,5.544
				c-104.172,0-138.078-32.628-138.078-32.628s-101.234,600.901,468.222,931.117c569.414-330.217,468.182-931.117,468.182-931.117
				s-33.887,32.628-138.078,32.628c-23.136,0-49.753-1.61-80.218-5.544C1042.278,765.268,967.555,687.706,967.555,687.706
				L967.555,687.706z"/>
			
				<linearGradient id="SVGID_00000165214359527758692560000000357002231480995984_" gradientUnits="userSpaceOnUse" x1="643.1183" y1="1464.3704" x2="1403.8535" y2="703.6353">
				<stop  offset="0" style="stop-color:#74C16B"/>
				<stop  offset="0.3774" style="stop-color:#9AD675"/>
				<stop  offset="0.4709" style="stop-color:#A2DA77"/>
				<stop  offset="0.7994" style="stop-color:#BBE77E"/>
				<stop  offset="1" style="stop-color:#C4EC81"/>
			</linearGradient>
			<polygon style="fill:url(#SVGID_00000165214359527758692560000000357002231480995984_);" points="1191.88,951.093 
				898.352,1244.625 782.146,1128.417 701.419,1209.137 898.352,1406.069 1272.6,1031.821 			"/>
		</g>
		<g>
			
				<linearGradient id="SVGID_00000023970600382894467220000012769735474698954386_" gradientUnits="userSpaceOnUse" x1="589.1701" y1="1395.4446" x2="1349.9036" y2="634.7111">
				<stop  offset="0" style="stop-color:#6DBE63"/>
				<stop  offset="0.3774" style="stop-color:#94D36E"/>
				<stop  offset="0.4973" style="stop-color:#9FD971"/>
				<stop  offset="0.8094" style="stop-color:#B8E678"/>
				<stop  offset="1" style="stop-color:#C1EB7A"/>
			</linearGradient>
			<path style="fill:url(#SVGID_00000023970600382894467220000012769735474698954386_);" d="M975.038,810.622
				c51.177,29.281,128.802,61.575,236.245,75.429c32.999,4.26,64.579,6.421,93.865,6.421c13.359,0,25.971-0.441,37.884-1.255
				c-1.733,51.707-8.362,116.423-25.92,186.821c-50.211,201.325-165.159,362.835-342.07,480.909
				c-176.925-118.074-291.886-279.586-342.102-480.911c-17.559-70.397-24.189-135.113-25.923-186.819
				c11.91,0.813,24.526,1.255,37.883,1.255c29.284,0,60.864-2.161,93.843-6.419C846.219,872.198,923.853,839.904,975.038,810.622
				 M975.044,680.217c0,0-74.737,77.561-249.927,100.146c-30.475,3.935-57.076,5.544-80.217,5.544
				c-104.172,0-138.078-32.629-138.078-32.629s-101.234,600.901,468.222,931.118c569.414-330.217,468.182-931.118,468.182-931.118
				s-33.887,32.629-138.078,32.629c-23.136,0-49.753-1.61-80.218-5.544C1049.767,757.778,975.044,680.217,975.044,680.217
				L975.044,680.217z"/>
			
				<linearGradient id="SVGID_00000076574790898443176230000006829696160504646321_" gradientUnits="userSpaceOnUse" x1="650.6076" y1="1456.8811" x2="1411.3428" y2="696.146">
				<stop  offset="0" style="stop-color:#6DBE63"/>
				<stop  offset="0.3774" style="stop-color:#94D36E"/>
				<stop  offset="0.4973" style="stop-color:#9FD971"/>
				<stop  offset="0.8094" style="stop-color:#B8E678"/>
				<stop  offset="1" style="stop-color:#C1EB7A"/>
			</linearGradient>
			<polygon style="fill:url(#SVGID_00000076574790898443176230000006829696160504646321_);" points="1199.37,943.604 
				905.841,1237.136 789.636,1120.927 708.909,1201.648 905.841,1398.58 1280.09,1024.332 			"/>
		</g>
		<g>
			
				<linearGradient id="SVGID_00000099661817681604730650000014507716927716953755_" gradientUnits="userSpaceOnUse" x1="596.6594" y1="1387.9553" x2="1357.3928" y2="627.2219">
				<stop  offset="0" style="stop-color:#65BB5A"/>
				<stop  offset="0.3774" style="stop-color:#8FD166"/>
				<stop  offset="0.5132" style="stop-color:#9CD86A"/>
				<stop  offset="0.8154" style="stop-color:#B5E570"/>
				<stop  offset="1" style="stop-color:#BEEA73"/>
			</linearGradient>
			<path style="fill:url(#SVGID_00000099661817681604730650000014507716927716953755_);" d="M982.528,803.133
				c51.178,29.281,128.802,61.575,236.245,75.429c32.999,4.26,64.579,6.421,93.865,6.421c13.359,0,25.971-0.441,37.884-1.255
				c-1.733,51.707-8.362,116.423-25.92,186.821c-50.211,201.325-165.159,362.835-342.07,480.909
				c-176.925-118.074-291.886-279.586-342.102-480.911c-17.559-70.397-24.189-135.113-25.923-186.819
				c11.91,0.813,24.526,1.255,37.883,1.255c29.285,0,60.864-2.161,93.843-6.419C853.708,864.708,931.342,832.415,982.528,803.133
				 M982.533,672.728c0,0-74.737,77.561-249.927,100.146c-30.475,3.935-57.076,5.544-80.217,5.544
				c-104.172,0-138.078-32.628-138.078-32.628s-101.234,600.901,468.222,931.117c569.414-330.217,468.182-931.117,468.182-931.117
				s-33.887,32.628-138.078,32.628c-23.136,0-49.753-1.61-80.218-5.544C1057.257,750.289,982.533,672.728,982.533,672.728
				L982.533,672.728z"/>
			
				<linearGradient id="SVGID_00000065049428079595462390000016941274422795932826_" gradientUnits="userSpaceOnUse" x1="658.0969" y1="1449.3918" x2="1418.8319" y2="688.6568">
				<stop  offset="0" style="stop-color:#65BB5A"/>
				<stop  offset="0.3774" style="stop-color:#8FD166"/>
				<stop  offset="0.5132" style="stop-color:#9CD86A"/>
				<stop  offset="0.8154" style="stop-color:#B5E570"/>
				<stop  offset="1" style="stop-color:#BEEA73"/>
			</linearGradient>
			<polygon style="fill:url(#SVGID_00000065049428079595462390000016941274422795932826_);" points="1206.859,936.115 
				913.33,1229.647 797.125,1113.438 716.398,1194.158 913.33,1391.091 1287.579,1016.842 			"/>
		</g>
		<g>
			
				<linearGradient id="SVGID_00000034048644681492431390000012099386076045177012_" gradientUnits="userSpaceOnUse" x1="604.1486" y1="1380.4661" x2="1364.8821" y2="619.7325">
				<stop  offset="0" style="stop-color:#5DB752"/>
				<stop  offset="0.3774" style="stop-color:#89CF5E"/>
				<stop  offset="0.5351" style="stop-color:#99D763"/>
				<stop  offset="0.8237" style="stop-color:#B2E469"/>
				<stop  offset="1" style="stop-color:#BBE96C"/>
			</linearGradient>
			<path style="fill:url(#SVGID_00000034048644681492431390000012099386076045177012_);" d="M990.017,795.643
				c51.178,29.281,128.802,61.575,236.245,75.429c32.999,4.26,64.579,6.421,93.865,6.421c13.359,0,25.971-0.441,37.884-1.255
				c-1.733,51.707-8.362,116.423-25.92,186.821c-50.211,201.325-165.159,362.835-342.07,480.909
				c-176.925-118.074-291.886-279.586-342.101-480.911c-17.559-70.397-24.189-135.113-25.923-186.819
				c11.91,0.813,24.526,1.255,37.882,1.255c29.285,0,60.864-2.161,93.843-6.419C861.198,857.219,938.831,824.926,990.017,795.643
				 M990.022,665.239c0,0-74.737,77.561-249.927,100.146c-30.475,3.935-57.076,5.544-80.217,5.544
				c-104.172,0-138.078-32.629-138.078-32.629s-101.234,600.901,468.222,931.118c569.414-330.217,468.182-931.118,468.182-931.118
				s-33.887,32.629-138.078,32.629c-23.136,0-49.753-1.61-80.218-5.544C1064.746,742.8,990.022,665.239,990.022,665.239
				L990.022,665.239z"/>
			
				<linearGradient id="SVGID_00000063615222622804163740000010336981659865341611_" gradientUnits="userSpaceOnUse" x1="665.5861" y1="1441.9026" x2="1426.3212" y2="681.1675">
				<stop  offset="0" style="stop-color:#5DB752"/>
				<stop  offset="0.3774" style="stop-color:#89CF5E"/>
				<stop  offset="0.5351" style="stop-color:#99D763"/>
				<stop  offset="0.8237" style="stop-color:#B2E469"/>
				<stop  offset="1" style="stop-color:#BBE96C"/>
			</linearGradient>
			<polygon style="fill:url(#SVGID_00000063615222622804163740000010336981659865341611_);" points="1214.348,928.626 
				920.819,1222.158 804.614,1105.949 723.887,1186.669 920.819,1383.601 1295.068,1009.353 			"/>
		</g>
		<g>
			
				<linearGradient id="SVGID_00000013878515634885780410000005275310070688371897_" gradientUnits="userSpaceOnUse" x1="611.6379" y1="1372.9768" x2="1372.3713" y2="612.2433">
				<stop  offset="0" style="stop-color:#55B44A"/>
				<stop  offset="0.0101" style="stop-color:#56B54A"/>
				<stop  offset="0.3774" style="stop-color:#84CD57"/>
				<stop  offset="0.5418" style="stop-color:#95D65C"/>
				<stop  offset="0.8262" style="stop-color:#AEE362"/>
				<stop  offset="1" style="stop-color:#B7E865"/>
			</linearGradient>
			<path style="fill:url(#SVGID_00000013878515634885780410000005275310070688371897_);" d="M997.506,788.154
				c51.178,29.281,128.802,61.575,236.245,75.429c32.999,4.26,64.579,6.421,93.865,6.421c13.359,0,25.971-0.441,37.884-1.255
				c-1.733,51.707-8.362,116.423-25.92,186.821c-50.211,201.325-165.159,362.835-342.07,480.909
				c-176.925-118.074-291.886-279.586-342.102-480.911c-17.559-70.397-24.189-135.113-25.923-186.819
				c11.91,0.813,24.526,1.255,37.882,1.255c29.285,0,60.864-2.161,93.843-6.419C868.687,849.73,946.32,817.437,997.506,788.154
				 M997.512,657.75c0,0-74.738,77.561-249.927,100.146c-30.475,3.935-57.076,5.544-80.217,5.544
				c-104.172,0-138.078-32.629-138.078-32.629s-101.234,600.901,468.222,931.117c569.414-330.217,468.182-931.117,468.182-931.117
				s-33.887,32.629-138.078,32.629c-23.136,0-49.753-1.61-80.218-5.544C1072.235,735.31,997.512,657.75,997.512,657.75
				L997.512,657.75z"/>
			
				<linearGradient id="SVGID_00000123422193721166538030000015741120114251341759_" gradientUnits="userSpaceOnUse" x1="673.0753" y1="1434.4133" x2="1433.8104" y2="673.6783">
				<stop  offset="0" style="stop-color:#55B44A"/>
				<stop  offset="0.0101" style="stop-color:#56B54A"/>
				<stop  offset="0.3774" style="stop-color:#84CD57"/>
				<stop  offset="0.5418" style="stop-color:#95D65C"/>
				<stop  offset="0.8262" style="stop-color:#AEE362"/>
				<stop  offset="1" style="stop-color:#B7E865"/>
			</linearGradient>
			<polygon style="fill:url(#SVGID_00000123422193721166538030000015741120114251341759_);" points="1221.837,921.136 
				928.309,1214.669 812.103,1098.46 731.376,1179.18 928.309,1376.112 1302.557,1001.864 			"/>
		</g>
		<g>
			
				<linearGradient id="SVGID_00000052786445670682852320000012867823348463834525_" gradientUnits="userSpaceOnUse" x1="619.1271" y1="1365.4875" x2="1379.8605" y2="604.7541">
				<stop  offset="0" style="stop-color:#4EB042"/>
				<stop  offset="0.0173" style="stop-color:#50B143"/>
				<stop  offset="0.3774" style="stop-color:#7ECA4F"/>
				<stop  offset="0.5608" style="stop-color:#92D555"/>
				<stop  offset="0.8334" style="stop-color:#ABE25B"/>
				<stop  offset="1" style="stop-color:#B4E75E"/>
			</linearGradient>
			<path style="fill:url(#SVGID_00000052786445670682852320000012867823348463834525_);" d="M1004.995,780.665
				c51.178,29.281,128.802,61.575,236.245,75.429c32.999,4.26,64.579,6.421,93.865,6.421c13.359,0,25.971-0.441,37.884-1.255
				c-1.733,51.707-8.362,116.423-25.92,186.821c-50.211,201.325-165.159,362.835-342.07,480.909
				c-176.925-118.074-291.886-279.586-342.101-480.911c-17.559-70.397-24.189-135.113-25.923-186.819
				c11.91,0.813,24.526,1.255,37.883,1.255c29.284,0,60.864-2.161,93.843-6.419C876.176,842.241,953.81,809.947,1004.995,780.665
				 M1005.001,650.26c0,0-74.737,77.561-249.927,100.146c-30.475,3.935-57.076,5.544-80.217,5.544
				c-104.172,0-138.078-32.629-138.078-32.629s-101.234,600.901,468.222,931.117c569.414-330.217,468.182-931.117,468.182-931.117
				s-33.887,32.629-138.078,32.629c-23.136,0-49.753-1.61-80.218-5.544C1079.724,727.821,1005.001,650.26,1005.001,650.26
				L1005.001,650.26z"/>
			
				<linearGradient id="SVGID_00000158721725171957450090000001815396847619365286_" gradientUnits="userSpaceOnUse" x1="680.5646" y1="1426.9241" x2="1441.2996" y2="666.1891">
				<stop  offset="0" style="stop-color:#4EB042"/>
				<stop  offset="0.0173" style="stop-color:#50B143"/>
				<stop  offset="0.3774" style="stop-color:#7ECA4F"/>
				<stop  offset="0.5608" style="stop-color:#92D555"/>
				<stop  offset="0.8334" style="stop-color:#ABE25B"/>
				<stop  offset="1" style="stop-color:#B4E75E"/>
			</linearGradient>
			<polygon style="fill:url(#SVGID_00000158721725171957450090000001815396847619365286_);" points="1229.327,913.647 
				935.798,1207.179 819.593,1090.97 738.865,1171.691 935.798,1368.623 1310.047,994.375 			"/>
		</g>
		<g>
			
				<linearGradient id="SVGID_00000116919905989135746830000017425701291846104986_" gradientUnits="userSpaceOnUse" x1="626.6163" y1="1357.9983" x2="1387.3497" y2="597.2648">
				<stop  offset="0" style="stop-color:#46AD3A"/>
				<stop  offset="0.0309" style="stop-color:#4AAF3B"/>
				<stop  offset="0.3774" style="stop-color:#78C848"/>
				<stop  offset="0.5781" style="stop-color:#8FD44E"/>
				<stop  offset="0.84" style="stop-color:#A8E155"/>
				<stop  offset="1" style="stop-color:#B1E657"/>
			</linearGradient>
			<path style="fill:url(#SVGID_00000116919905989135746830000017425701291846104986_);" d="M1012.485,773.176
				c51.178,29.281,128.802,61.575,236.245,75.429c32.999,4.26,64.579,6.421,93.865,6.421c13.359,0,25.971-0.441,37.884-1.255
				c-1.733,51.707-8.362,116.423-25.92,186.821c-50.211,201.325-165.159,362.835-342.07,480.909
				c-176.925-118.074-291.886-279.586-342.101-480.911c-17.559-70.397-24.189-135.113-25.923-186.819
				c11.91,0.813,24.526,1.255,37.883,1.255c29.284,0,60.864-2.161,93.843-6.419C883.665,834.752,961.299,802.458,1012.485,773.176
				 M1012.49,642.771c0,0-74.737,77.561-249.927,100.146c-30.475,3.935-57.076,5.544-80.217,5.544
				c-104.172,0-138.078-32.628-138.078-32.628s-101.233,600.901,468.222,931.117c569.414-330.217,468.182-931.117,468.182-931.117
				s-33.887,32.628-138.078,32.628c-23.135,0-49.753-1.61-80.218-5.544C1087.214,720.332,1012.49,642.771,1012.49,642.771
				L1012.49,642.771z"/>
			
				<linearGradient id="SVGID_00000034788897514648518690000000101497371906463670_" gradientUnits="userSpaceOnUse" x1="688.0538" y1="1419.4348" x2="1448.7888" y2="658.6998">
				<stop  offset="0" style="stop-color:#46AD3A"/>
				<stop  offset="0.0309" style="stop-color:#4AAF3B"/>
				<stop  offset="0.3774" style="stop-color:#78C848"/>
				<stop  offset="0.5781" style="stop-color:#8FD44E"/>
				<stop  offset="0.84" style="stop-color:#A8E155"/>
				<stop  offset="1" style="stop-color:#B1E657"/>
			</linearGradient>
			<polygon style="fill:url(#SVGID_00000034788897514648518690000000101497371906463670_);" points="1236.816,906.158 
				943.287,1199.69 827.082,1083.481 746.355,1164.201 943.287,1361.134 1317.536,986.885 			"/>
		</g>
		<g>
			
				<linearGradient id="SVGID_00000177455935478703384550000006418841708751889033_" gradientUnits="userSpaceOnUse" x1="634.1055" y1="1350.509" x2="1394.839" y2="589.7755">
				<stop  offset="0" style="stop-color:#3EAA31"/>
				<stop  offset="0.0495" style="stop-color:#45AE33"/>
				<stop  offset="0.3774" style="stop-color:#73C640"/>
				<stop  offset="0.5888" style="stop-color:#8CD347"/>
				<stop  offset="0.844" style="stop-color:#A5E04E"/>
				<stop  offset="1" style="stop-color:#AEE550"/>
			</linearGradient>
			<path style="fill:url(#SVGID_00000177455935478703384550000006418841708751889033_);" d="M1019.974,765.687
				c51.178,29.281,128.802,61.575,236.245,75.429c32.999,4.26,64.579,6.421,93.865,6.421c13.359,0,25.971-0.441,37.884-1.255
				c-1.733,51.707-8.362,116.423-25.92,186.821c-50.211,201.325-165.159,362.835-342.07,480.909
				c-176.925-118.074-291.886-279.586-342.101-480.911c-17.559-70.397-24.189-135.113-25.923-186.819
				c11.91,0.813,24.526,1.255,37.883,1.255c29.284,0,60.864-2.161,93.843-6.419C891.155,827.262,968.788,794.969,1019.974,765.687
				 M1019.979,635.282c0,0-74.737,77.561-249.927,100.146c-30.475,3.935-57.076,5.544-80.217,5.544
				c-104.172,0-138.078-32.629-138.078-32.629s-101.233,600.901,468.222,931.117c569.414-330.217,468.182-931.117,468.182-931.117
				s-33.887,32.629-138.078,32.629c-23.136,0-49.753-1.61-80.218-5.544C1094.703,712.843,1019.979,635.282,1019.979,635.282
				L1019.979,635.282z"/>
			
				<linearGradient id="SVGID_00000135651742465345792630000013029698275342216595_" gradientUnits="userSpaceOnUse" x1="695.5432" y1="1411.9456" x2="1456.2781" y2="651.2106">
				<stop  offset="0" style="stop-color:#3EAA31"/>
				<stop  offset="0.0495" style="stop-color:#45AE33"/>
				<stop  offset="0.3774" style="stop-color:#73C640"/>
				<stop  offset="0.5888" style="stop-color:#8CD347"/>
				<stop  offset="0.844" style="stop-color:#A5E04E"/>
				<stop  offset="1" style="stop-color:#AEE550"/>
			</linearGradient>
			<polygon style="fill:url(#SVGID_00000135651742465345792630000013029698275342216595_);" points="1244.305,898.669 
				950.776,1192.201 834.571,1075.992 753.844,1156.712 950.776,1353.644 1325.025,979.396 			"/>
		</g>
		<g>
			
				<linearGradient id="SVGID_00000072979855551022119850000015192142020796260511_" gradientUnits="userSpaceOnUse" x1="641.5948" y1="1343.0198" x2="1402.3282" y2="582.2864">
				<stop  offset="0" style="stop-color:#37A629"/>
				<stop  offset="0.0552" style="stop-color:#3FAA2B"/>
				<stop  offset="0.3774" style="stop-color:#6DC338"/>
				<stop  offset="0.5988" style="stop-color:#88D240"/>
				<stop  offset="0.8478" style="stop-color:#A1DF46"/>
				<stop  offset="1" style="stop-color:#AAE449"/>
			</linearGradient>
			<path style="fill:url(#SVGID_00000072979855551022119850000015192142020796260511_);" d="M1027.463,758.197
				c51.177,29.281,128.802,61.575,236.244,75.429c32.999,4.26,64.579,6.421,93.865,6.421c13.359,0,25.971-0.441,37.884-1.255
				c-1.733,51.707-8.362,116.423-25.92,186.821c-50.211,201.325-165.159,362.835-342.07,480.909
				c-176.925-118.074-291.886-279.586-342.101-480.911c-17.559-70.397-24.189-135.113-25.923-186.819
				c11.91,0.813,24.526,1.255,37.883,1.255c29.284,0,60.864-2.161,93.843-6.419C898.644,819.773,976.277,787.48,1027.463,758.197
				 M1027.469,627.793c0,0-74.737,77.561-249.927,100.146c-30.475,3.935-57.076,5.544-80.217,5.544
				c-104.172,0-138.078-32.628-138.078-32.628s-101.234,600.901,468.222,931.117c569.414-330.217,468.182-931.117,468.182-931.117
				s-33.887,32.628-138.078,32.628c-23.136,0-49.753-1.61-80.218-5.544C1102.192,705.354,1027.469,627.793,1027.469,627.793
				L1027.469,627.793z"/>
			
				<linearGradient id="SVGID_00000140707187879340288540000005340635801688288160_" gradientUnits="userSpaceOnUse" x1="703.0323" y1="1404.4563" x2="1463.7673" y2="643.7213">
				<stop  offset="0" style="stop-color:#37A629"/>
				<stop  offset="0.0552" style="stop-color:#3FAA2B"/>
				<stop  offset="0.3774" style="stop-color:#6DC338"/>
				<stop  offset="0.5988" style="stop-color:#88D240"/>
				<stop  offset="0.8478" style="stop-color:#A1DF46"/>
				<stop  offset="1" style="stop-color:#AAE449"/>
			</linearGradient>
			<polygon style="fill:url(#SVGID_00000140707187879340288540000005340635801688288160_);" points="1251.794,891.18 
				958.266,1184.712 842.06,1068.503 761.333,1149.223 958.266,1346.155 1332.514,971.907 			"/>
		</g>
		<g>
			
				<linearGradient id="SVGID_00000011739318453153692450000012971358044949697173_" gradientUnits="userSpaceOnUse" x1="649.084" y1="1335.5305" x2="1409.8174" y2="574.7971">
				<stop  offset="0" style="stop-color:#2FA321"/>
				<stop  offset="0.0661" style="stop-color:#39A924"/>
				<stop  offset="0.3774" style="stop-color:#67C131"/>
				<stop  offset="0.6128" style="stop-color:#85D139"/>
				<stop  offset="0.8531" style="stop-color:#9EDE40"/>
				<stop  offset="1" style="stop-color:#A7E342"/>
			</linearGradient>
			<path style="fill:url(#SVGID_00000011739318453153692450000012971358044949697173_);" d="M1034.952,750.708
				c51.178,29.281,128.802,61.575,236.245,75.429c32.999,4.26,64.579,6.421,93.865,6.421c13.359,0,25.971-0.441,37.884-1.255
				c-1.733,51.707-8.362,116.423-25.92,186.821c-50.211,201.325-165.159,362.835-342.07,480.909
				c-176.925-118.074-291.886-279.586-342.101-480.911c-17.559-70.397-24.189-135.113-25.923-186.819
				c11.91,0.813,24.526,1.255,37.883,1.255c29.284,0,60.864-2.161,93.843-6.419C906.133,812.284,983.767,779.99,1034.952,750.708
				 M1034.958,620.303c0,0-74.737,77.561-249.927,100.146c-30.475,3.935-57.076,5.544-80.217,5.544
				c-104.172,0-138.078-32.629-138.078-32.629s-101.234,600.901,468.222,931.117c569.414-330.217,468.182-931.117,468.182-931.117
				s-33.887,32.629-138.078,32.629c-23.136,0-49.753-1.61-80.218-5.544C1109.681,697.864,1034.958,620.303,1034.958,620.303
				L1034.958,620.303z"/>
			
				<linearGradient id="SVGID_00000065042486216467241320000015976068670147356082_" gradientUnits="userSpaceOnUse" x1="710.5217" y1="1396.967" x2="1471.2565" y2="636.2322">
				<stop  offset="0" style="stop-color:#2FA321"/>
				<stop  offset="0.0661" style="stop-color:#39A924"/>
				<stop  offset="0.3774" style="stop-color:#67C131"/>
				<stop  offset="0.6128" style="stop-color:#85D139"/>
				<stop  offset="0.8531" style="stop-color:#9EDE40"/>
				<stop  offset="1" style="stop-color:#A7E342"/>
			</linearGradient>
			<polygon style="fill:url(#SVGID_00000065042486216467241320000015976068670147356082_);" points="1259.283,883.69 
				965.755,1177.222 849.55,1061.014 768.823,1141.734 965.755,1338.666 1340.004,964.418 			"/>
		</g>
		<g>
			
				<linearGradient id="SVGID_00000065787428815423928630000000262660604653883834_" gradientUnits="userSpaceOnUse" x1="656.5732" y1="1328.0413" x2="1417.3066" y2="567.3078">
				<stop  offset="0" style="stop-color:#279F19"/>
				<stop  offset="0.081" style="stop-color:#34A61D"/>
				<stop  offset="0.3774" style="stop-color:#62BF29"/>
				<stop  offset="0.6207" style="stop-color:#82D032"/>
				<stop  offset="0.8564" style="stop-color:#9BDD39"/>
				<stop  offset="1" style="stop-color:#A4E23B"/>
			</linearGradient>
			<path style="fill:url(#SVGID_00000065787428815423928630000000262660604653883834_);" d="M1042.442,743.219
				c51.178,29.281,128.802,61.575,236.245,75.429c32.999,4.26,64.579,6.421,93.865,6.421c13.359,0,25.971-0.441,37.884-1.255
				c-1.733,51.707-8.362,116.423-25.92,186.821c-50.211,201.325-165.159,362.835-342.07,480.909
				c-176.925-118.074-291.886-279.586-342.101-480.911c-17.559-70.397-24.189-135.113-25.923-186.819
				c11.91,0.813,24.526,1.255,37.883,1.255c29.284,0,60.864-2.161,93.843-6.419C913.622,804.794,991.256,772.501,1042.442,743.219
				 M1042.447,612.814c0,0-74.738,77.561-249.927,100.146c-30.475,3.935-57.076,5.544-80.217,5.544
				c-104.172,0-138.078-32.628-138.078-32.628s-101.233,600.901,468.222,931.117c569.414-330.217,468.182-931.117,468.182-931.117
				s-33.887,32.628-138.078,32.628c-23.136,0-49.753-1.61-80.218-5.544C1117.17,690.375,1042.447,612.814,1042.447,612.814
				L1042.447,612.814z"/>
			
				<linearGradient id="SVGID_00000054951191875518561470000001399962499844401800_" gradientUnits="userSpaceOnUse" x1="718.0108" y1="1389.4778" x2="1478.7457" y2="628.7429">
				<stop  offset="0" style="stop-color:#279F19"/>
				<stop  offset="0.081" style="stop-color:#34A61D"/>
				<stop  offset="0.3774" style="stop-color:#62BF29"/>
				<stop  offset="0.6207" style="stop-color:#82D032"/>
				<stop  offset="0.8564" style="stop-color:#9BDD39"/>
				<stop  offset="1" style="stop-color:#A4E23B"/>
			</linearGradient>
			<polygon style="fill:url(#SVGID_00000054951191875518561470000001399962499844401800_);" points="1266.773,876.201 
				973.244,1169.733 857.039,1053.524 776.312,1134.244 973.244,1331.177 1347.493,956.928 			"/>
		</g>
		<g>
			
				<linearGradient id="SVGID_00000044878833158788498400000011048218248814537351_" gradientUnits="userSpaceOnUse" x1="664.0624" y1="1320.552" x2="1424.7959" y2="559.8185">
				<stop  offset="0" style="stop-color:#1F9C10"/>
				<stop  offset="0.0902" style="stop-color:#2EA414"/>
				<stop  offset="0.3774" style="stop-color:#5CBD21"/>
				<stop  offset="0.633" style="stop-color:#7FCF2B"/>
				<stop  offset="0.8611" style="stop-color:#98DC31"/>
				<stop  offset="1" style="stop-color:#A1E134"/>
			</linearGradient>
			<path style="fill:url(#SVGID_00000044878833158788498400000011048218248814537351_);" d="M1049.931,735.729
				c51.178,29.281,128.802,61.575,236.245,75.429c32.999,4.26,64.579,6.421,93.865,6.421c13.359,0,25.971-0.441,37.884-1.255
				c-1.733,51.707-8.362,116.423-25.92,186.821c-50.21,201.325-165.159,362.835-342.07,480.909
				c-176.925-118.074-291.886-279.586-342.101-480.911c-17.559-70.397-24.189-135.113-25.923-186.819
				c11.91,0.813,24.526,1.255,37.882,1.255c29.285,0,60.864-2.161,93.843-6.419C921.112,797.305,998.745,765.012,1049.931,735.729
				 M1049.936,605.325c0,0-74.738,77.561-249.927,100.146c-30.475,3.935-57.076,5.544-80.217,5.544
				c-104.172,0-138.078-32.629-138.078-32.629s-101.233,600.901,468.222,931.117c569.414-330.217,468.182-931.117,468.182-931.117
				s-33.887,32.629-138.078,32.629c-23.136,0-49.753-1.61-80.218-5.544C1124.66,682.886,1049.936,605.325,1049.936,605.325
				L1049.936,605.325z"/>
			
				<linearGradient id="SVGID_00000069358317992138982210000006610611065790359425_" gradientUnits="userSpaceOnUse" x1="725.5002" y1="1381.9885" x2="1486.235" y2="621.2537">
				<stop  offset="0" style="stop-color:#1F9C10"/>
				<stop  offset="0.0902" style="stop-color:#2EA414"/>
				<stop  offset="0.3774" style="stop-color:#5CBD21"/>
				<stop  offset="0.633" style="stop-color:#7FCF2B"/>
				<stop  offset="0.8611" style="stop-color:#98DC31"/>
				<stop  offset="1" style="stop-color:#A1E134"/>
			</linearGradient>
			<polygon style="fill:url(#SVGID_00000069358317992138982210000006610611065790359425_);" points="1274.262,868.712 
				980.733,1162.244 864.528,1046.035 783.801,1126.755 980.733,1323.687 1354.982,949.439 			"/>
		</g>
		<g>
			
				<linearGradient id="SVGID_00000134929364523841782280000014493104667466602406_" gradientUnits="userSpaceOnUse" x1="671.5517" y1="1313.0627" x2="1432.2852" y2="552.3293">
				<stop  offset="0" style="stop-color:#189808"/>
				<stop  offset="0.0988" style="stop-color:#29A10D"/>
				<stop  offset="0.3774" style="stop-color:#57BA1A"/>
				<stop  offset="0.6369" style="stop-color:#7BCE24"/>
				<stop  offset="0.8625" style="stop-color:#94DB2B"/>
				<stop  offset="1" style="stop-color:#9DE02D"/>
			</linearGradient>
			<path style="fill:url(#SVGID_00000134929364523841782280000014493104667466602406_);" d="M1057.42,728.24
				c51.178,29.281,128.802,61.575,236.244,75.429c32.999,4.26,64.579,6.421,93.865,6.421c13.359,0,25.971-0.441,37.884-1.255
				c-1.733,51.707-8.362,116.423-25.92,186.821c-50.21,201.325-165.159,362.835-342.07,480.909
				c-176.925-118.074-291.886-279.586-342.101-480.911c-17.559-70.397-24.189-135.113-25.923-186.819
				c11.91,0.813,24.526,1.255,37.882,1.255c29.285,0,60.864-2.161,93.843-6.419C928.601,789.816,1006.234,757.523,1057.42,728.24
				 M1057.425,597.836c0,0-74.738,77.561-249.927,100.146c-30.475,3.935-57.076,5.544-80.217,5.544
				c-104.172,0-138.078-32.629-138.078-32.629s-101.233,600.901,468.222,931.117c569.414-330.217,468.182-931.117,468.182-931.117
				s-33.887,32.629-138.078,32.629c-23.136,0-49.753-1.61-80.218-5.544C1132.149,675.396,1057.425,597.836,1057.425,597.836
				L1057.425,597.836z"/>
			
				<linearGradient id="SVGID_00000034796416766149586500000016270181168800307864_" gradientUnits="userSpaceOnUse" x1="732.9893" y1="1374.4993" x2="1493.7242" y2="613.7644">
				<stop  offset="0" style="stop-color:#189808"/>
				<stop  offset="0.0988" style="stop-color:#29A10D"/>
				<stop  offset="0.3774" style="stop-color:#57BA1A"/>
				<stop  offset="0.6369" style="stop-color:#7BCE24"/>
				<stop  offset="0.8625" style="stop-color:#94DB2B"/>
				<stop  offset="1" style="stop-color:#9DE02D"/>
			</linearGradient>
			<polygon style="fill:url(#SVGID_00000034796416766149586500000016270181168800307864_);" points="1281.751,861.223 
				988.222,1154.755 872.017,1038.546 791.29,1119.266 988.222,1316.198 1362.471,941.95 			"/>
		</g>
		<g>
			
				<linearGradient id="SVGID_00000092438751563675256190000011410642042909607094_" gradientUnits="userSpaceOnUse" x1="679.0409" y1="1305.5735" x2="1439.7743" y2="544.8401">
				<stop  offset="0" style="stop-color:#109500"/>
				<stop  offset="0.1069" style="stop-color:#239F05"/>
				<stop  offset="0.3774" style="stop-color:#51B812"/>
				<stop  offset="0.6479" style="stop-color:#78CD1D"/>
				<stop  offset="0.8667" style="stop-color:#91DA24"/>
				<stop  offset="1" style="stop-color:#9ADF26"/>
			</linearGradient>
			<path style="fill:url(#SVGID_00000092438751563675256190000011410642042909607094_);" d="M1064.909,720.751
				c51.178,29.281,128.802,61.575,236.244,75.429c32.999,4.26,64.579,6.422,93.865,6.422c13.359,0,25.971-0.441,37.884-1.255
				c-1.733,51.707-8.362,116.423-25.92,186.821c-50.21,201.325-165.159,362.835-342.07,480.908
				c-176.925-118.074-291.886-279.586-342.101-480.911c-17.559-70.397-24.189-135.113-25.923-186.819
				c11.91,0.813,24.526,1.255,37.883,1.255c29.284,0,60.864-2.161,93.843-6.419C936.09,782.327,1013.724,750.033,1064.909,720.751
				 M1064.915,590.346c0,0-74.737,77.561-249.927,100.146c-30.475,3.935-57.076,5.544-80.217,5.544
				c-104.172,0-138.078-32.629-138.078-32.629s-101.233,600.901,468.222,931.117c569.414-330.217,468.182-931.117,468.182-931.117
				s-33.887,32.629-138.078,32.629c-23.136,0-49.753-1.61-80.218-5.544C1139.638,667.907,1064.915,590.346,1064.915,590.346
				L1064.915,590.346z"/>
			
				<linearGradient id="SVGID_00000001626922259510346300000011289203655535900596_" gradientUnits="userSpaceOnUse" x1="740.4787" y1="1367.01" x2="1501.2134" y2="606.2753">
				<stop  offset="0" style="stop-color:#109500"/>
				<stop  offset="0.1069" style="stop-color:#239F05"/>
				<stop  offset="0.3774" style="stop-color:#51B812"/>
				<stop  offset="0.6479" style="stop-color:#78CD1D"/>
				<stop  offset="0.8667" style="stop-color:#91DA24"/>
				<stop  offset="1" style="stop-color:#9ADF26"/>
			</linearGradient>
			<polygon style="fill:url(#SVGID_00000001626922259510346300000011289203655535900596_);" points="1289.24,853.734 
				995.712,1147.265 879.507,1031.057 798.779,1111.777 995.712,1308.709 1369.96,934.461 			"/>
		</g>
	</g>
	<g>
		
			<linearGradient id="SVGID_00000137854359436888929070000000310610192338917265_" gradientUnits="userSpaceOnUse" x1="679.0409" y1="1305.5735" x2="1439.7743" y2="544.8401">
			<stop  offset="0" style="stop-color:#109500"/>
			<stop  offset="0.1069" style="stop-color:#239F05"/>
			<stop  offset="0.3774" style="stop-color:#51B812"/>
			<stop  offset="0.6479" style="stop-color:#78CD1D"/>
			<stop  offset="0.8667" style="stop-color:#91DA24"/>
			<stop  offset="1" style="stop-color:#9ADF26"/>
		</linearGradient>
		<path style="fill:url(#SVGID_00000137854359436888929070000000310610192338917265_);" d="M1064.909,720.751
			c51.178,29.281,128.802,61.575,236.244,75.429c32.999,4.26,64.579,6.422,93.865,6.422c13.359,0,25.971-0.441,37.884-1.255
			c-1.733,51.707-8.362,116.423-25.92,186.821c-50.21,201.325-165.159,362.835-342.07,480.908
			c-176.925-118.074-291.886-279.586-342.101-480.911c-17.559-70.397-24.189-135.113-25.923-186.819
			c11.91,0.813,24.526,1.255,37.883,1.255c29.284,0,60.864-2.161,93.843-6.419C936.09,782.327,1013.724,750.033,1064.909,720.751
			 M1064.915,590.346c0,0-74.737,77.561-249.927,100.146c-30.475,3.935-57.076,5.544-80.217,5.544
			c-104.172,0-138.078-32.629-138.078-32.629s-101.233,600.901,468.222,931.117c569.414-330.217,468.182-931.117,468.182-931.117
			s-33.887,32.629-138.078,32.629c-23.136,0-49.753-1.61-80.218-5.544C1139.638,667.907,1064.915,590.346,1064.915,590.346
			L1064.915,590.346z"/>
		
			<linearGradient id="SVGID_00000176725697933315266730000017160228232668120495_" gradientUnits="userSpaceOnUse" x1="740.4787" y1="1367.01" x2="1501.2134" y2="606.2753">
			<stop  offset="0" style="stop-color:#109500"/>
			<stop  offset="0.1069" style="stop-color:#239F05"/>
			<stop  offset="0.3774" style="stop-color:#51B812"/>
			<stop  offset="0.6479" style="stop-color:#78CD1D"/>
			<stop  offset="0.8667" style="stop-color:#91DA24"/>
			<stop  offset="1" style="stop-color:#9ADF26"/>
		</linearGradient>
		<polygon style="fill:url(#SVGID_00000176725697933315266730000017160228232668120495_);" points="1289.24,853.734 
			995.712,1147.265 879.507,1031.057 798.779,1111.777 995.712,1308.709 1369.96,934.461 		"/>
	</g>
</g>
</svg>
