<?xml version="1.0" encoding="utf-8"?>
<!-- Generator: Adobe Illustrator 28.0.0, SVG Export Plug-In . SVG Version: 6.00 Build 0)  -->
<svg version="1.1" id="Слой_1" xmlns="http://www.w3.org/2000/svg" xmlns:xlink="http://www.w3.org/1999/xlink" x="0px" y="0px"
	 viewBox="0 0 1000 1000" style="enable-background:new 0 0 1000 1000;" xml:space="preserve">
<style type="text/css">
	.st0{fill:#5865F2;}
	.st1{fill:#FFFFFF;}
</style>
<g>
	<circle class="st0" cx="500" cy="500" r="500"/>
	<path class="st1" d="M741.6,280.7c-45.7-21-93.9-35.8-143.5-44.1l-0.1-0.3c-6.8,12.1-12.9,24.6-18.5,37.3
		c-52.7-7.9-106.4-7.9-159.3,0c-5.4-12.8-11.7-25.3-18.5-37.3c-49.5,8.5-97.8,23.3-143.6,44.3C167.3,415,142.8,546,155,675.2
		c53.1,39.3,112.7,69.2,176.1,88.4c14.3-19.2,26.9-39.6,37.7-60.8c-20.5-7.6-40.4-17.2-59.4-28.3c5-3.6,9.9-7.4,14.6-11
		c111.4,52.5,240.5,52.5,352.1,0c4.7,3.9,9.6,7.6,14.6,11c-19,11.2-38.9,20.7-59.5,28.4c10.8,21.2,23.5,41.6,37.7,60.8
		c63.4-19.2,122.9-49,176.1-88.3C859.4,525.6,820.3,395.7,741.6,280.7z M384.4,595.7c-34.3,0-62.7-31.1-62.7-69.5
		s27.3-69.7,62.6-69.7s63.3,31.4,62.7,69.7S419.4,595.7,384.4,595.7z M615.6,595.7c-34.4,0-62.6-31.1-62.6-69.5s27.3-69.7,62.6-69.7
		s63.1,31.4,62.6,69.7C677.6,564.5,650.6,595.7,615.6,595.7z"/>
</g>
</svg>
